<svg width="32" height="32" viewBox="0 0 32 32" fill="none" xmlns="http://www.w3.org/2000/svg">
  <!-- Background circle -->
  <circle cx="16" cy="16" r="15" fill="#9caf88" stroke="#a8b89a" stroke-width="1"/>
  
  <!-- Portfolio folder icon -->
  <path d="M8 10C8 9.44772 8.44772 9 9 9H13L15 7H23C23.5523 7 24 7.44772 24 8V22C24 22.5523 23.5523 23 23 23H9C8.44772 23 8 22.5523 8 22V10Z" fill="#f5f1eb"/>
  
  <!-- Folder tab -->
  <path d="M13 9L15 7H23C23.5523 7 24 7.44772 24 8V9H13Z" fill="#e6e1f0"/>
  
  <!-- Document lines representing portfolio content -->
  <rect x="11" y="12" width="10" height="1" rx="0.5" fill="#6b7c6e"/>
  <rect x="11" y="14" width="8" height="1" rx="0.5" fill="#6b7c6e"/>
  <rect x="11" y="16" width="6" height="1" rx="0.5" fill="#6b7c6e"/>
  <rect x="11" y="18" width="9" height="1" rx="0.5" fill="#6b7c6e"/>
  
  <!-- Small accent dot -->
  <circle cx="20" cy="20" r="2" fill="#f4e4bc"/>
</svg>
